<?xml version="1.0" standalone="no"?>
<!DOCTYPE svg PUBLIC "-//W3C//DTD SVG 20010904//EN"
 "http://www.w3.org/TR/2001/REC-SVG-20010904/DTD/svg10.dtd">
<svg version="1.0" xmlns="http://www.w3.org/2000/svg"
 width="500.000000pt" height="500.000000pt" viewBox="0 0 500.000000 500.000000"
 preserveAspectRatio="xMidYMid meet">

<g transform="translate(0.000000,500.000000) scale(0.100000,-0.100000)"
fill="#000000" stroke="none">
<path d="M0 2500 l0 -2500 2500 0 2500 0 0 2500 0 2500 -2500 0 -2500 0 0
-2500z m2715 1744 c164 -31 314 -92 455 -187 91 -61 261 -230 315 -312 89
-135 158 -306 187 -461 19 -104 16 -341 -6 -444 -104 -484 -482 -851 -961
-934 -530 -92 -1071 195 -1287 684 -122 278 -134 623 -31 900 203 542 763 860
1328 754z m-1060 -255 c4 -5 -17 -36 -47 -67 -354 -372 -437 -926 -208 -1387
71 -142 135 -231 247 -342 228 -225 522 -344 853 -344 458 -1 865 242 1088
651 70 129 142 379 142 496 0 24 5 34 15 34 20 0 20 -72 -1 -181 -92 -488
-447 -870 -922 -994 -263 -69 -545 -53 -789 45 -348 139 -624 439 -737 798
-44 142 -59 258 -53 427 12 318 119 577 341 823 49 53 60 60 71 41z m-1237
-2281 c46 -43 69 -108 107 -293 9 -44 20 -86 25 -94 10 -18 12 -11 44 140 28
134 56 206 95 243 27 26 84 49 95 38 12 -12 6 -82 -7 -82 -17 0 -50 -37 -65
-72 -6 -15 -23 -82 -37 -150 -14 -68 -34 -139 -43 -158 -37 -76 -108 -78 -149
-5 -12 22 -34 94 -48 160 -28 133 -59 205 -92 220 -18 7 -23 18 -23 46 0 19 3
38 6 41 10 11 66 -11 92 -34z m914 32 c20 -6 50 -26 67 -46 l31 -35 0 -219 0
-220 -40 0 -40 0 0 204 c0 173 -2 207 -16 220 -13 13 -44 16 -180 16 l-164 0
0 -95 0 -95 155 0 155 0 0 -40 0 -40 -155 0 -155 0 0 -85 0 -85 -40 0 -40 0 0
220 0 220 40 0 40 0 0 45 0 45 153 0 c83 0 169 -5 189 -10z m580 -32 c3 -43 3
-43 45 -46 41 -3 41 -3 32 -34 -16 -58 -76 -105 -234 -185 -151 -76 -195 -105
-195 -130 0 -10 41 -13 205 -13 l205 0 0 -40 0 -40 -210 0 -210 0 0 40 0 40
-40 0 c-45 0 -50 12 -25 60 22 42 64 71 222 149 132 67 203 115 203 140 0 8
-64 11 -210 11 l-210 0 0 38 c0 21 3 42 7 45 3 4 98 7 209 7 l203 0 3 -42z
m206 -168 c3 -259 -13 -240 198 -240 l154 0 2 223 3 222 43 3 42 3 0 -225 0
-226 -40 0 -40 0 0 -41 0 -40 -184 3 c-181 3 -185 3 -212 28 -49 46 -54 73
-54 288 0 109 3 202 7 206 4 4 23 6 43 4 l35 -3 3 -205z m647 172 c34 -23 52
-50 122 -192 58 -116 92 -174 117 -196 29 -25 36 -38 36 -68 0 -43 -17 -47
-67 -16 -47 28 -82 82 -163 246 -54 112 -77 149 -100 162 -26 15 -30 23 -30
60 0 40 2 43 23 37 12 -4 40 -19 62 -33z m355 -187 l0 -225 -40 0 -40 0 0 225
0 225 40 0 40 0 0 -225z m503 202 c58 -38 62 -55 62 -247 l0 -175 -42 -3 c-43
-3 -43 -3 -43 -43 l0 -39 -172 0 c-154 0 -177 2 -205 20 -57 34 -63 60 -63
250 l0 170 40 0 c40 0 40 0 40 38 0 21 3 42 8 46 4 4 84 6 177 4 143 -2 175
-6 198 -21z m-3303 -287 l0 -220 -40 0 -40 0 0 220 0 220 40 0 40 0 0 -220z
m550 0 l0 -220 -40 0 -40 0 0 220 0 220 40 0 40 0 0 -220z m1810 0 l0 -220
-40 0 -40 0 0 220 0 220 40 0 40 0 0 -220z m-460 -509 c0 -5 -9 -11 -20 -14
-17 -4 -20 -14 -20 -61 0 -31 -4 -56 -10 -56 -6 0 -10 27 -10 60 0 54 -2 60
-21 60 -11 0 -17 5 -14 10 8 12 95 13 95 1z m130 -1 c0 -5 -13 -10 -30 -10
-23 0 -30 -4 -30 -20 0 -16 7 -20 30 -20 17 0 30 -4 30 -10 0 -5 -13 -10 -30
-10 -23 0 -30 -4 -30 -20 0 -16 7 -20 30 -20 17 0 30 -4 30 -10 0 -5 -18 -10
-40 -10 l-40 0 0 70 0 70 40 0 c22 0 40 -4 40 -10z m130 -5 c16 -20 5 -32 -14
-16 -23 20 -36 4 -36 -45 0 -45 13 -57 38 -32 17 17 28 2 12 -17 -18 -21 -57
-19 -70 4 -15 29 -12 87 6 105 20 20 48 20 64 1z m88 -18 c2 -15 9 -27 17 -27
8 0 15 12 17 27 2 14 9 28 16 31 9 3 12 -15 12 -67 0 -56 -3 -71 -15 -71 -10
0 -15 10 -15 30 0 20 -5 30 -15 30 -10 0 -15 -10 -15 -30 0 -20 -5 -30 -15
-30 -12 0 -15 15 -15 71 0 52 3 70 13 67 6 -3 13 -17 15 -31z m159 -19 l18
-53 3 53 c4 74 22 55 22 -24 0 -55 -3 -65 -16 -62 -9 2 -25 23 -35 48 l-18 45
0 -47 c-1 -27 -5 -48 -11 -48 -6 0 -10 30 -10 70 0 88 20 95 47 18z m161 40
c7 -7 12 -36 12 -64 0 -44 -3 -54 -20 -59 -49 -16 -84 36 -65 97 12 37 48 51
73 26z m92 -48 l0 -60 30 0 c17 0 30 -4 30 -10 0 -5 -18 -10 -40 -10 l-40 0 0
70 c0 40 4 70 10 70 6 0 10 -27 10 -60z m181 50 c15 -8 19 -21 19 -58 0 -52
-12 -72 -45 -72 -32 0 -45 20 -45 70 0 64 24 84 71 60z m145 -7 c20 -21 1 -32
-22 -12 -22 18 -36 -2 -32 -47 2 -27 8 -40 21 -42 10 -2 17 3 17 12 0 9 -4 16
-10 16 -5 0 -10 5 -10 10 0 6 11 10 25 10 27 0 32 -18 15 -51 -12 -21 -50 -25
-68 -7 -16 16 -16 100 0 116 17 17 44 15 64 -5z m87 -13 c12 -31 27 -40 27
-17 0 18 27 53 35 45 3 -3 -3 -24 -14 -47 -12 -22 -21 -52 -21 -66 0 -14 -4
-25 -10 -25 -5 0 -10 11 -10 25 0 14 -9 43 -20 65 -23 45 -24 50 -9 50 6 0 16
-13 22 -30z m323 16 c25 -19 12 -31 -15 -14 -27 16 -41 -1 -41 -50 0 -37 21
-52 45 -32 20 17 32 5 15 -15 -15 -18 -51 -20 -68 -3 -19 19 -15 105 6 117 23
14 35 13 58 -3z m138 -2 c18 -18 21 -76 6 -105 -12 -21 -50 -25 -68 -7 -16 16
-16 100 0 116 17 17 44 15 62 -4z m96 -11 l13 -28 6 25 c4 14 13 25 21 25 11
0 16 -16 18 -67 2 -43 -1 -68 -8 -68 -5 0 -10 23 -11 53 0 45 -2 49 -11 30 -6
-13 -14 -23 -18 -23 -4 0 -12 10 -18 23 -9 19 -11 15 -11 -30 -1 -29 -5 -53
-11 -53 -11 0 -14 123 -3 133 12 12 20 7 33 -20z m185 7 c22 -25 13 -48 -25
-61 -22 -8 -30 -17 -30 -35 0 -15 -6 -24 -15 -24 -12 0 -15 14 -15 63 0 35 3
67 7 70 13 14 61 6 78 -13z m125 -22 c6 -24 15 -55 20 -70 7 -21 6 -28 -4 -28
-8 0 -16 9 -19 20 -3 11 -13 20 -22 20 -9 0 -19 -9 -22 -20 -3 -11 -11 -20
-18 -20 -11 0 -9 15 6 67 10 38 19 69 19 70 0 2 7 3 15 3 8 0 19 -17 25 -42z
m117 -10 l18 -53 3 53 c4 74 22 55 22 -24 0 -55 -3 -65 -16 -62 -9 2 -25 23
-35 48 l-18 45 0 -47 c-1 -27 -5 -48 -11 -48 -6 0 -10 30 -10 70 0 88 20 95
47 18z m116 22 c12 -31 27 -40 27 -17 0 18 27 53 35 45 3 -3 -3 -24 -14 -47
-12 -22 -21 -52 -21 -66 0 -14 -4 -25 -10 -25 -5 0 -10 11 -10 25 0 14 -9 43
-20 65 -23 45 -24 50 -9 50 6 0 16 -13 22 -30z"/>
<path d="M2405 4203 c-79 -7 -202 -36 -293 -68 -368 -131 -655 -475 -722 -865
-19 -104 -17 -297 3 -401 90 -463 453 -824 911 -904 171 -29 390 -15 546 36
92 31 244 109 320 164 141 105 280 276 355 437 254 550 24 1210 -518 1484
-179 91 -405 135 -602 117z m228 -70 c-7 -2 -19 -2 -25 0 -7 3 -2 5 12 5 14 0
19 -2 13 -5z m97 -13 c0 -5 -7 -10 -15 -10 -8 0 -15 5 -15 10 0 6 7 10 15 10
8 0 15 -4 15 -10z m85 -20 c3 -5 -1 -10 -9 -10 -9 0 -16 5 -16 10 0 6 4 10 9
10 6 0 13 -4 16 -10z m-275 -29 c0 -16 -11 -19 -92 -25 -132 -9 -247 -39 -363
-95 -485 -233 -689 -804 -460 -1288 130 -275 382 -474 680 -538 121 -27 304
-23 425 8 147 38 274 101 382 190 44 35 68 41 68 16 0 -29 -197 -159 -297
-197 -153 -58 -203 -67 -388 -67 -157 0 -177 2 -265 29 -171 50 -302 127 -429
250 -124 121 -202 243 -254 398 -40 120 -51 192 -50 338 1 210 49 367 168 546
183 275 492 444 828 453 40 1 47 -2 47 -18z m365 -1 c3 -5 -1 -10 -9 -10 -9 0
-16 5 -16 10 0 6 4 10 9 10 6 0 13 -4 16 -10z m90 -40 c3 -5 -1 -10 -9 -10 -8
0 -18 5 -21 10 -3 6 1 10 9 10 8 0 18 -4 21 -10z m-995 -20 c0 -5 -7 -10 -16
-10 -8 0 -12 5 -9 10 3 6 10 10 16 10 5 0 9 -4 9 -10z m1076 -37 c-7 -7 -26 7
-26 19 0 6 6 6 15 -2 9 -7 13 -15 11 -17z m-273 -29 c46 -15 77 -31 77 -39 0
-24 -15 -25 -70 -4 -29 11 -82 27 -118 35 -79 18 -86 22 -72 39 13 16 73 6
183 -31z m-888 16 c-3 -5 -11 -10 -16 -10 -6 0 -7 5 -4 10 3 6 11 10 16 10 6
0 7 -4 4 -10z m1240 -30 c3 -5 -1 -10 -9 -10 -9 0 -16 5 -16 10 0 6 4 10 9 10
6 0 13 -4 16 -10z m-1320 -29 c-3 -6 -11 -11 -17 -11 -6 0 -6 6 2 15 14 17 26
13 15 -4z m921 -39 c415 -141 647 -559 548 -982 -24 -100 -103 -254 -174 -338
-57 -67 -64 -72 -78 -58 -15 14 -13 19 19 53 120 128 189 275 211 449 36 293
-107 590 -363 754 -173 111 -391 148 -595 100 -287 -66 -512 -289 -585 -580
-18 -70 -20 -103 -16 -209 5 -141 21 -209 72 -314 117 -238 334 -398 595 -438
67 -10 80 -16 80 -31 0 -16 -6 -17 -57 -12 -201 23 -371 109 -515 262 -82 88
-138 182 -179 303 -28 81 -33 112 -37 224 -5 161 16 265 83 401 90 180 235
315 426 395 112 47 185 59 339 55 121 -2 145 -6 226 -34z m469 8 c3 -5 -1 -10
-9 -10 -9 0 -16 5 -16 10 0 6 4 10 9 10 6 0 13 -4 16 -10z m-1455 -30 c0 -5
-7 -10 -16 -10 -8 0 -12 5 -9 10 3 6 10 10 16 10 5 0 9 -4 9 -10z m1520 -41
c0 -6 -4 -7 -10 -4 -5 3 -10 11 -10 16 0 6 5 7 10 4 6 -3 10 -11 10 -16z
m-682 -11 c3 -16 -7 -18 -102 -18 -82 0 -106 3 -106 13 0 25 13 28 109 25 82
-3 96 -6 99 -20z m544 -65 c81 -85 105 -120 90 -135 -7 -7 -36 16 -99 82 -48
51 -89 99 -91 106 -8 34 40 8 100 -53z m-1447 47 c-3 -5 -11 -10 -16 -10 -6 0
-7 5 -4 10 3 6 11 10 16 10 6 0 7 -4 4 -10z m563 -21 c3 -21 -174 -111 -188
-94 -14 17 11 37 96 80 71 36 87 38 92 14z m574 -21 c80 -42 99 -61 80 -80 -7
-7 -19 -4 -41 11 -16 12 -55 33 -85 47 -52 24 -66 40 -49 57 9 10 8 11 95 -35z
m508 1 c0 -5 -4 -9 -10 -9 -5 0 -10 7 -10 16 0 8 5 12 10 9 6 -3 10 -10 10
-16z m-1700 -28 c0 -12 -20 -25 -27 -18 -7 7 6 27 18 27 5 0 9 -4 9 -9z m1758
-49 c6 -18 -15 -14 -22 4 -4 10 -1 14 6 12 6 -2 14 -10 16 -16z m-1814 -37
c-6 -16 -24 -21 -24 -7 0 11 11 22 21 22 5 0 6 -7 3 -15z m1860 -41 c4 -10 1
-14 -6 -12 -15 5 -23 28 -10 28 5 0 13 -7 16 -16z m-1137 -10 c3 -9 1 -25 -5
-35 -7 -10 -12 -32 -12 -49 l0 -30 95 0 94 0 3 62 c2 38 8 63 16 66 9 3 12
-14 12 -62 l0 -66 95 0 95 0 0 65 c0 51 3 65 15 65 12 0 15 -14 15 -65 l0 -65
64 0 c92 0 109 -16 114 -109 4 -71 4 -71 33 -71 16 0 38 5 48 12 24 15 51 4
51 -20 0 -29 -24 -46 -49 -33 -11 6 -33 11 -50 11 l-31 0 0 -95 0 -95 66 0
c48 0 65 -3 62 -12 -3 -8 -28 -14 -66 -16 l-62 -3 0 -89 0 -89 62 -3 c38 -2
63 -8 66 -15 3 -10 -14 -13 -61 -13 l-65 0 -4 -71 c-5 -93 -22 -109 -114 -109
l-64 0 0 -65 c0 -51 -3 -65 -15 -65 -12 0 -15 14 -15 65 l0 65 -95 0 -95 0 0
-65 c0 -51 -3 -65 -15 -65 -12 0 -15 14 -15 65 l0 65 -95 0 -95 0 0 -30 c0
-17 5 -39 12 -49 16 -26 3 -53 -24 -49 -22 3 -23 7 -20 66 l4 62 -66 0 c-91 0
-106 16 -106 110 l0 70 -34 0 c-19 0 -38 -4 -41 -10 -10 -15 -52 -12 -59 5
-12 32 17 62 45 44 8 -5 31 -9 52 -9 l37 0 0 90 0 90 -54 0 c-30 0 -61 3 -70
6 -32 12 -3 24 60 24 l64 0 0 95 0 94 -67 3 c-38 2 -68 8 -68 13 0 6 30 11 68
13 l67 3 0 69 c0 62 2 70 26 89 20 16 41 21 87 21 l60 0 -6 59 c-4 32 -4 61 0
65 12 12 44 6 50 -10z m-337 -9 c0 -15 -95 -161 -111 -171 -19 -11 -21 30 -4
60 56 98 115 155 115 111z m1103 -27 c51 -65 80 -117 73 -134 -9 -24 -28 -12
-56 34 -14 23 -38 59 -53 81 -26 36 -29 61 -7 61 5 0 24 -19 43 -42z m-1537
-5 c-10 -10 -19 5 -10 18 6 11 8 11 12 0 2 -7 1 -15 -2 -18z m1944 -38 c0 -8
-2 -15 -4 -15 -2 0 -6 7 -10 15 -3 8 -1 15 4 15 6 0 10 -7 10 -15z m-1984 -52
c-10 -10 -19 5 -10 18 6 11 8 11 12 0 2 -7 1 -15 -2 -18z m2019 -41 c-8 -8
-25 10 -19 20 4 6 9 5 15 -3 4 -7 6 -15 4 -17z m-167 6 c15 -19 52 -176 52
-220 0 -43 -26 -55 -34 -15 -2 12 -12 58 -21 102 -10 44 -20 95 -22 113 -5 33
6 42 25 20z m-1874 -43 c-4 -8 -8 -15 -10 -15 -2 0 -4 7 -4 15 0 8 4 15 10 15
5 0 7 -7 4 -15z m2066 -51 c0 -8 -4 -12 -10 -9 -5 3 -10 10 -10 16 0 5 5 9 10
9 6 0 10 -7 10 -16z m-331 -61 c6 -27 13 -73 14 -103 2 -43 -1 -55 -14 -58
-13 -2 -18 9 -23 55 -4 32 -12 75 -17 96 -11 40 -6 57 16 57 7 0 18 -20 24
-47z m-1759 22 c0 -8 -4 -15 -10 -15 -5 0 -7 7 -4 15 4 8 8 15 10 15 2 0 4 -7
4 -15z m362 -30 c-1 -11 -6 -56 -10 -100 -6 -67 -10 -80 -26 -83 -18 -4 -19 2
-13 84 2 49 8 97 12 107 10 24 41 17 37 -8z m1748 -26 c0 -5 -4 -9 -10 -9 -5
0 -10 7 -10 16 0 8 5 12 10 9 6 -3 10 -10 10 -16z m-2124 -46 c-10 -10 -19 5
-10 18 6 11 8 11 12 0 2 -7 1 -15 -2 -18z m2121 -45 c-3 -8 -6 -5 -6 6 -1 11
2 17 5 13 3 -3 4 -12 1 -19z m-2125 -50 c-9 -9 -12 -7 -12 12 0 19 3 21 12 12
9 -9 9 -15 0 -24z m2125 -50 c-3 -7 -5 -2 -5 12 0 14 2 19 5 13 2 -7 2 -19 0
-25z m-2117 -33 c0 -8 -4 -15 -10 -15 -5 0 -10 7 -10 15 0 8 5 15 10 15 6 0
10 -7 10 -15z m2113 -60 c-7 -21 -13 -19 -13 6 0 11 4 18 10 14 5 -3 7 -12 3
-20z m-1718 -70 c13 -33 29 -75 36 -92 16 -40 1 -64 -23 -39 -22 22 -72 162
-64 181 11 28 28 11 51 -50z m-385 33 c0 -18 -2 -20 -9 -8 -6 8 -7 18 -5 22 9
14 14 9 14 -14z m2081 -61 c-8 -8 -11 -7 -11 4 0 20 13 34 18 19 3 -7 -1 -17
-7 -23z m-2061 -32 c0 -8 -2 -15 -4 -15 -2 0 -6 7 -10 15 -3 8 -1 15 4 15 6 0
10 -7 10 -15z m2044 -50 c-4 -8 -10 -13 -15 -10 -4 3 -6 12 -3 20 4 8 10 13
15 10 4 -3 6 -12 3 -20z m-2014 -41 c0 -8 -4 -12 -10 -9 -5 3 -10 10 -10 16 0
5 5 9 10 9 6 0 10 -7 10 -16z m1971 -57 c-8 -8 -11 -7 -11 4 0 20 13 34 18 19
3 -7 -1 -17 -7 -23z m-1931 -28 c0 -5 -4 -9 -10 -9 -5 0 -10 7 -10 16 0 8 5
12 10 9 6 -3 10 -10 10 -16z m1720 -25 c0 -22 -34 -68 -104 -141 -55 -59 -86
-77 -86 -52 0 6 25 39 56 72 31 34 68 79 81 100 26 38 53 49 53 21z m176 -31
c-10 -10 -19 5 -10 18 6 11 8 11 12 0 2 -7 1 -15 -2 -18z m-1856 -28 c0 -8 -2
-15 -4 -15 -2 0 -6 7 -10 15 -3 8 -1 15 4 15 6 0 10 -7 10 -15z m279 -63 c25
-27 66 -64 90 -84 31 -25 42 -40 38 -52 -6 -14 -11 -15 -28 -5 -34 18 -179
160 -179 175 0 28 33 13 79 -34z m1535 23 c-6 -16 -24 -21 -24 -7 0 11 11 22
21 22 5 0 6 -7 3 -15z m-1758 -42 c-7 -7 -26 7 -26 19 0 6 6 6 15 -2 9 -7 13
-15 11 -17z m1704 -32 c0 -6 -4 -13 -10 -16 -5 -3 -10 1 -10 9 0 9 5 16 10 16
6 0 10 -4 10 -9z m-1650 -37 c0 -8 -4 -12 -10 -9 -5 3 -10 10 -10 16 0 5 5 9
10 9 6 0 10 -7 10 -16z m1588 -36 c-2 -6 -10 -14 -16 -16 -7 -2 -10 2 -6 12 7
18 28 22 22 4z m-1520 -37 c3 -8 -1 -12 -9 -9 -7 2 -15 10 -17 17 -3 8 1 12 9
9 7 -2 15 -10 17 -17z m1149 -37 c8 -23 -218 -103 -254 -90 -26 10 2 32 59 45
29 7 78 23 108 36 57 25 81 28 87 9z m303 6 c0 -5 -7 -10 -16 -10 -8 0 -12 5
-9 10 3 6 10 10 16 10 5 0 9 -4 9 -10z m-1380 -32 c0 -13 -23 -5 -28 10 -2 7
2 10 12 6 9 -3 16 -11 16 -16z m503 -31 c83 -17 107 -25 105 -37 -3 -12 -15
-14 -53 -11 -58 4 -195 37 -208 50 -15 15 3 33 27 26 11 -3 69 -16 129 -28z
m802 3 c-3 -5 -11 -10 -16 -10 -6 0 -7 5 -4 10 3 6 11 10 16 10 6 0 7 -4 4
-10z m-1231 -31 c-6 -11 -24 -2 -24 11 0 5 7 7 15 4 8 -4 12 -10 9 -15z m1156
-19 c0 -5 -7 -10 -16 -10 -8 0 -12 5 -9 10 3 6 10 10 16 10 5 0 9 -4 9 -10z
m-1076 -31 c-6 -11 -24 -2 -24 11 0 5 7 7 15 4 8 -4 12 -10 9 -15z m991 -19
c-3 -5 -10 -10 -16 -10 -5 0 -9 5 -9 10 0 6 7 10 16 10 8 0 12 -4 9 -10z
m-905 -22 c0 -13 -23 -5 -28 10 -2 7 2 10 12 6 9 -3 16 -11 16 -16z m819 -19
c-16 -10 -23 -4 -14 10 3 6 11 8 17 5 6 -4 5 -9 -3 -15z m-734 -9 c3 -5 -1
-10 -9 -10 -9 0 -16 5 -16 10 0 6 4 10 9 10 6 0 13 -4 16 -10z m655 -14 c0 -2
-7 -6 -15 -10 -8 -3 -15 -1 -15 4 0 6 7 10 15 10 8 0 15 -2 15 -4z m-560 -16
c0 -5 -4 -10 -9 -10 -6 0 -13 5 -16 10 -3 6 1 10 9 10 9 0 16 -4 16 -10z m465
-10 c-3 -5 -13 -10 -21 -10 -8 0 -12 5 -9 10 3 6 13 10 21 10 8 0 12 -4 9 -10z
m-375 -10 c0 -5 -4 -10 -9 -10 -6 0 -13 5 -16 10 -3 6 1 10 9 10 9 0 16 -4 16
-10z m280 0 c0 -5 -8 -10 -17 -10 -15 0 -16 2 -3 10 19 12 20 12 20 0z m-188
-12 c-9 -9 -15 -9 -24 0 -9 9 -7 12 12 12 19 0 21 -3 12 -12z m98 2 c0 -5 -7
-10 -15 -10 -8 0 -15 5 -15 10 0 6 7 10 15 10 8 0 15 -4 15 -10z"/>
<path d="M2142 3408 c-9 -9 -12 -106 -12 -374 0 -321 2 -363 16 -368 9 -3 174
-6 368 -6 260 0 355 3 364 12 16 16 17 700 2 729 -10 18 -25 19 -368 19 -265
0 -361 -3 -370 -12z m348 -78 c13 -7 27 -6 44 2 34 15 73 -2 86 -37 7 -19 17
-25 41 -25 43 0 89 -47 89 -92 0 -22 7 -37 19 -45 27 -17 35 -60 17 -88 -13
-20 -13 -25 -1 -35 38 -31 22 -125 -25 -150 -11 -6 -20 -21 -20 -33 0 -26 -33
-66 -55 -68 -45 -4 -73 -8 -97 -14 -19 -5 -36 -2 -53 9 -23 15 -27 15 -50 0
-17 -11 -35 -14 -57 -10 -18 4 -50 8 -71 10 -45 5 -74 27 -82 67 -4 16 -20 42
-36 58 -33 34 -38 75 -13 123 11 22 13 33 5 41 -18 18 -13 62 9 82 11 10 20
28 20 41 0 57 47 104 105 104 16 0 25 6 25 15 0 22 37 55 61 55 11 0 29 -5 39
-10z"/>
<path d="M2424 3296 c-3 -7 -4 -26 -2 -42 2 -22 -1 -28 -12 -25 -53 14 -79 12
-100 -9 -18 -18 -21 -30 -17 -59 4 -31 1 -39 -17 -47 -20 -9 -37 -64 -19 -64
4 0 15 -4 23 -10 12 -7 9 -13 -13 -34 -39 -36 -35 -91 8 -121 23 -15 29 -26
27 -47 -4 -34 34 -62 71 -53 14 4 28 2 31 -4 9 -15 59 -14 74 1 17 17 15 83
-3 98 -20 17 -48 9 -60 -18 -12 -27 -35 -29 -35 -4 0 31 45 65 79 60 l31 -5 0
193 c0 166 -2 193 -16 198 -26 10 -44 7 -50 -8z m-8 -141 c3 -14 3 -36 0 -49
-3 -14 -2 -28 4 -31 13 -8 13 -45 0 -45 -5 0 -14 9 -20 20 -6 11 -19 20 -30
20 -29 0 -50 11 -50 26 0 10 10 13 33 12 29 -3 32 0 34 27 2 44 2 45 13 45 5
0 12 -11 16 -25z"/>
<path d="M2532 3298 c-7 -7 -12 -42 -12 -88 0 -46 5 -81 12 -88 21 -21 57 -14
70 13 13 29 35 28 30 -1 -7 -37 -34 -56 -74 -52 l-38 4 0 -143 c0 -115 3 -144
16 -157 18 -18 60 -21 70 -5 4 6 20 8 39 5 41 -8 65 13 65 55 0 22 6 32 24 39
52 20 60 79 16 120 l-30 28 25 16 c32 21 32 53 0 68 -21 9 -25 18 -25 53 0 59
-25 80 -86 71 -46 -6 -46 -6 -40 20 11 43 -32 72 -62 42z m178 -333 c22 -14 9
-26 -20 -20 -28 6 -30 5 -30 -22 0 -28 -15 -53 -32 -53 -4 0 -6 17 -5 38 2 36
1 37 -30 36 -33 -2 -47 19 -20 29 16 6 124 0 137 -8z"/>
<path d="M3242 1495 c2 -117 7 -168 16 -177 9 -9 60 -14 177 -16 l165 -3 0
165 c0 136 -3 167 -16 180 -13 13 -44 16 -180 16 l-165 0 3 -165z"/>
<path d="M2847 914 c-4 -4 -7 -27 -7 -51 0 -37 3 -43 21 -43 18 0 20 5 17 47
-3 44 -15 62 -31 47z"/>
<path d="M3114 907 c-3 -8 -4 -30 -2 -49 2 -25 8 -33 23 -33 17 0 20 7 20 45
0 35 -4 45 -18 48 -9 2 -20 -3 -23 -11z"/>
<path d="M3804 906 c-11 -29 1 -81 19 -84 14 -3 17 4 17 47 0 39 -4 51 -15 51
-9 0 -18 -6 -21 -14z"/>
<path d="M4080 895 c0 -20 4 -26 18 -23 9 2 17 12 17 23 0 11 -8 21 -17 23
-14 3 -18 -3 -18 -23z"/>
<path d="M4227 889 c-10 -35 -9 -39 8 -39 16 0 18 14 6 44 -7 18 -8 18 -14 -5z"/>
</g>
</svg>
